PathFileType	4	(X/Y/Z)	T1_P1_NoVision_NoMovement_0_0-649.trc
DataRate	CameraRate	NumFrames	NumMarkers	Units	OrigDataRate	OrigDataStartFrame	OrigNumFrames
60	60	7	27	m	60	324	649
Frame#	Time	RHip			RKnee			RAnkle			RBigToe			RSmallToe			RHeel			LHip			LKnee			LAnkle			LBigToe			LSmallToe			LHeel			Neck			Head			Nose			RShoulder			RElbow			RWrist			RThumb			RIndex			RPinky			LShoulder			LElbow			LWrist			LThumb			LIndex			LPinky		
		X1	Y1	Z1	X2	Y2	Z2	X3	Y3	Z3	X4	Y4	Z4	X5	Y5	Z5	X6	Y6	Z6	X7	Y7	Z7	X8	Y8	Z8	X9	Y9	Z9	X10	Y10	Z10	X11	Y11	Z11	X12	Y12	Z12	X13	Y13	Z13	X14	Y14	Z14	X15	Y15	Z15	X16	Y16	Z16	X17	Y17	Z17	X18	Y18	Z18	X19	Y19	Z19	X20	Y20	Z20	X21	Y21	Z21	X22	Y22	Z22	X23	Y23	Z23	X24	Y24	Z24	X25	Y25	Z25	X26	Y26	Z26	X27	Y27	Z27
325	5.416666666666667	-75.5806777865268	3832.6118785617045	-522.8813011579763	302.583417497594	3981.3638126803417	-524.7576191532755	639.9655208072675	4156.963137873924	-532.7372221908724	731.941474428818	4041.8990710354374	-509.76649678321314	733.0610180864089	4058.111599756405	-596.5187540653843	663.4182141683933	4175.487317045077	-517.8437946822672	-109.93492281038068	3907.553510906699	-340.01352825192	260.83382502252147	4026.5095983100855	-335.9815120580087	605.9406887773929	4225.349187473519	-354.80011194823976	679.2138866789938	4133.394129828873	-243.57330622282987	658.536379865011	4230.8718828858155	-225.13185892867747	638.39909161002	4296.835006540795	-387.04674904173845	-637.4972835503338	3672.292895500109	-449.7166539777255	-882.1657353713828	3475.7324990163547	-359.1738017886114	-703.5106503037172	3514.6986714153386	-310.58873987499766	-556.8591697384205	3608.673152260585	-562.8987230673321	-284.6078158347215	3725.3995590478253	-661.0540000919002	-22.841945632155173	3744.203042856677	-590.2468721869562	89.28313039382337	3758.662471884872	-538.711267515491	109.30240489808257	3777.3968224758564	-558.0234622109397	103.96841636699361	3789.525546220434	-590.2268524202304	-615.9171242627918	3823.776767923731	-342.8155888170482	-379.06159339919486	3946.1117446098906	-277.20480899831136	-137.64604116265434	3929.6309970899315	-197.48932255287042	-13.165599422040058	3970.4585215451043	-216.04518858054703	6.131108550409057	3988.080949952278	-204.11842247753808	-11.427974617571046	3983.9912606573885	-183.82499771717377
326	5.433333333333334	-75.55773761033572	3832.400469047661	-522.7629398737715	302.4782848954191	3981.4080723142456	-524.6326595762619	635.3876256688217	4126.689102576285	-526.007265503753	726.0202429690152	4043.290189062345	-510.8491906341672	732.7493765892783	4058.0089061866447	-596.481575357058	657.7662215650586	4175.605300216128	-518.5081192940239	-109.91561097846473	3907.468767132178	-339.96736487488073	260.8085001188648	4026.541159787008	-335.9445244613028	605.9284622553106	4225.260542322922	-354.78224071725754	673.8374031688105	4134.318180983226	-244.44051238197096	658.468059400426	4231.103630208518	-225.17836808833343	633.8426363136541	4264.664984740722	-381.2384286992878	-632.9983639721302	3675.274887592835	-450.7998031313587	-882.303820820021	3475.8511844315026	-359.15771370093046	-703.5160458729184	3514.725785550077	-310.6962541144599	-556.861621928324	3608.718848289905	-562.9546336731509	-286.63413741469986	3752.0835881021076	-668.3994203984076	-27.14893277119276	3717.5575332249805	-584.11843483061	89.14296459036231	3758.1803879758363	-538.7451904462615	108.36304030935422	3750.859928086271	-551.2752863379974	103.73586206332858	3789.186505216233	-590.1055666861294	-615.9839125772055	3823.903626693615	-342.8775258897645	-378.9416561503417	3964.117192570552	-288.61919159194207	-132.37907823021132	3931.6728044582796	-196.86106941820205	-17.851926715255118	3967.381628650121	-214.67221594486222	11.493128396376168	3990.5455561108956	-203.57953067284177	-11.535566726713844	4011.4475385777046	-187.8841675562791
327	5.45	-70.70529051544597	3835.524252043228	-524.3479113960258	302.6961158776201	3981.907414212472	-524.9775285044734	635.5754985972267	4126.284356966349	-525.8829959402094	726.0936652945988	4043.5410901215055	-511.1145871630407	737.9587224363383	4078.0354513197894	-610.9381118151332	663.2906493278823	4174.296546665541	-517.5169144491418	-104.81631888309734	3911.032274524002	-341.4205218958173	260.91798266159617	4026.4394512756644	-335.86446053427267	599.3794537754587	4220.519966671515	-352.7084139428941	684.477915615224	4157.187089935452	-258.21440829760576	658.5391005692447	4231.467121944007	-225.35682258075767	633.713735200649	4264.2935764777285	-381.12883895938586	-632.9783421172738	3675.447759723703	-450.8695206503771	-882.2756225840709	3475.788308179077	-359.16305673076386	-703.4536149735468	3514.661809164127	-310.6074368381009	-556.8864979494317	3608.7921610998364	-562.9880203616135	-286.4976571522071	3752.1760878766363	-668.5607799349292	-26.604528324526242	3716.289567896615	-588.9088646305146	90.8524843469087	3774.9697588951467	-552.3081134265966	108.50891312154077	3750.267155606103	-551.2605474688612	99.19271645602413	3789.0867010114584	-590.7391429921978	-619.8196968020371	3849.8258207461795	-347.85625272852457	-384.4323500877724	3962.51278562604	-289.3112328837385	-137.5268536380722	3927.7155811319685	-195.29262907710074	-18.227694969973662	3966.2521435508324	-214.19395438199305	6.63677811969266	3986.3346210390923	-201.94567142190223	-16.762002244852088	4007.039137755499	-185.95522316531938
328	5.466666666666667	-75.53122090859925	3831.939175766983	-522.685771043925	302.46368233347965	3981.110920861638	-524.746953360184	629.1945183595068	4123.4135516801725	-526.6535298366689	720.5213795229362	4013.120136095322	-504.07678978562427	737.353655040778	4077.496998348152	-610.7523166262288	663.2196076889086	4175.154584367532	-517.8909006557385	-104.8309942431445	3910.9021875297235	-341.4000438402954	260.907091732141	4026.668310132592	-335.955254989631	610.4616837454109	4257.470036736127	-360.86085747332885	679.4176309154127	4158.467568677284	-259.1342192132519	658.6303447005391	4231.81256660223	-225.48781704715392	633.832298098561	4265.124570155115	-381.4635936612152	-628.0545496392066	3676.534508626656	-450.79499358525675	-882.2507534801013	3475.9029440521663	-359.318130349359	-703.4849447716871	3514.5369925262617	-310.60816580454957	-556.8780868771023	3608.7954610853085	-563.0383772742189	-286.68555283627325	3751.7516309900607	-668.1435563016627	-22.004083560593152	3716.5429985494143	-588.653807700177	91.06130231745816	3775.192259657382	-552.4667494127928	113.48180947123596	3753.7282310918586	-553.0718645936049	103.75345719921441	3789.2267740825164	-590.4711270726954	-619.7870761227401	3849.754827215209	-347.6879540822983	-373.5340422170586	3947.8629793476352	-276.6158447860067	-132.38760722355272	3931.4471623455815	-196.6037630206721	-13.040646336809479	3970.483245118907	-215.79927136925568	11.546508315974027	3990.0055951284044	-203.27674811741596	-11.635893902685716	4011.3669095809087	-187.59216711441337
329	5.483333333333333	-75.65220938711927	3831.832225501852	-522.5030663980799	301.8576212845663	3980.354313676424	-518.0844602417052	646.2806969827038	4161.2111469857955	-535.0434428162941	720.6290069677574	4012.9882577299386	-504.0230136787127	737.4818884917333	4077.527764746258	-610.7692215549353	663.4010038888974	4175.458272362843	-517.9867590012558	-109.90898691838241	3907.1715632962537	-339.830627241481	260.87132188074406	4026.360756393516	-335.8634666598243	610.6185337885164	4257.602253802547	-360.8430235968003	684.7825989388282	4160.7478769945865	-258.1668947913943	658.6071668058107	4231.557652321806	-225.46918117447376	644.2815327569106	4296.536082983377	-386.43395589861564	-628.1244614817541	3676.4988391782567	-450.7828312737331	-882.0718226681493	3474.4619968520456	-353.04266931685015	-699.3481639340873	3515.450519724104	-310.43718416217126	-556.9213799026797	3608.913612372777	-563.0767620321113	-286.7477793370511	3751.5868583206593	-668.0984633919767	-26.519504152953424	3716.287528252494	-589.0944894457082	90.28913520498966	3748.676920791532	-545.7204556061947	113.36036836487949	3753.323713471232	-553.228288355853	98.70924156185423	3762.743614585246	-584.7564880290246	-615.9047949602005	3823.6595161250075	-342.640485024308	-373.61853804852933	3947.603520140295	-276.52094988872506	-132.47368697744463	3931.278108521956	-196.53555310831274	-13.135866003811708	3970.1475470118967	-215.5828205722252	11.474491192792721	3990.058570000161	-203.27165314389927	-11.6989751626818	4010.8751436622583	-187.42787926546094
330	5.5	-75.59634650652876	3831.9887261128524	-522.6395916035298	302.9708085814504	3981.9230679526777	-525.0721133119108	633.4612844263927	4153.89037032925	-533.6476028771258	725.4581435417205	4043.9482138621283	-511.4181935749876	732.2238157236065	4058.13395551574	-596.7678213169974	663.1570608412871	4175.628751126159	-518.1510280264245	-109.95733160782032	3907.1551006189006	-339.8627709963032	260.75470713281516	4026.119539819856	-335.7475464512464	599.3345055501273	4220.727288784347	-352.7635971550563	679.0108518075078	4133.164669785844	-243.619000254214	658.4803321582999	4231.165478008705	-225.23931313836144	633.7218631657719	4264.818730404194	-381.34120544402975	-633.1078376130858	3675.589728785723	-450.94284485977374	-882.2745327345176	3475.9817458269754	-359.311324520812	-703.4728199601666	3514.2049115319187	-310.6826719681284	-556.9546555762802	3609.1431324124683	-563.2125935822256	-291.46772061974	3751.0181526792735	-668.3161725918326	-26.58089012984216	3715.648207744586	-588.9240086360999	90.85484566107469	3749.1867309871122	-551.7838856518429	112.73426602494553	3726.2167326479466	-546.013893029588	99.01309096776325	3786.171720462838	-595.5168368339075	-619.8200078053333	3849.8271742765733	-347.7911858366553	-378.91407910772864	3964.163660541497	-288.72596614714354	-137.35981234498183	3931.157988962714	-197.05432353662692	-12.90210092736294	3971.1210518206553	-216.0626793438943	11.62639523625041	3990.298079099197	-203.46232961553898	-11.630503146097022	4011.555349368716	-187.6440034599397
331	5.516666666666667	-75.62584053574983	3831.947572868683	-522.6202910920799	302.9643139861262	3981.8542970564217	-525.0896377866754	629.1988618191012	4123.238273690502	-526.6482719536713	736.6025375578442	4074.556412178082	-517.9147446738759	732.6267852953113	4058.3664000149683	-596.7718197521473	663.1633956915147	4174.522636298389	-517.7562865971513	-109.9668479418945	3907.1081805611134	-339.79225932074456	260.9931776605609	4026.424927239799	-335.88678039824396	605.7354098745294	4224.607487553722	-354.6457401171802	673.5879151142109	4133.671667059429	-244.52146099523304	653.064732066016	4231.807120706841	-225.98436746643134	633.5291364070188	4263.80277642467	-381.0239675146436	-628.1833436174599	3676.7123190731995	-450.88237978436024	-882.2610697688344	3475.8867982754173	-359.2351358172072	-703.5598473032201	3514.659501804524	-310.7355457716666	-556.8985862924865	3609.078943708616	-563.1687402650002	-286.62934595678473	3751.6997394783652	-668.3354909003031	-26.01375336354836	3714.8313816359796	-594.0478757492718	89.24395092250974	3731.5072039099377	-538.1588647687139	112.56111560373564	3725.7370493456087	-546.0660301296328	94.11918339205106	3759.618594115591	-589.8799292796597	-619.8273345362205	3849.94465296932	-347.83815693620136	-378.0172766664507	3944.5139172612166	-275.4081461666657	-138.3237165741321	3957.1191507756253	-200.84568666757733	-13.107326365687934	3970.879037975389	-215.83892631096415	11.58877815412084	3990.313373332907	-203.32353824798727	-11.822699423807281	4011.0509952229304	-187.26145637823728
